#!OML:ASF H:\Terrain\Walking\May29\JustinRory\Justin.ASF
:FULLY-SPECIFIED
:DEGREES
100
root 1.40648 17.5483 7.16236 0.382319 2.49568 -6.99787
lowerback 1.58846 3.6096 3.40197
upperback -0.176189 4.87087 -0.862632
thorax -0.711204 2.42031 -2.87556
lowerneck -11.5135 17.4649 -1.91751
upperneck 11.413 24.6554 -4.90702
head 5.70703 11.563 0.825006
rclavicle -1.45113e-014 -1.98785e-014
rhumerus -13.0812 -41.2591 -8.19445
rradius 80.4029
rwrist -46.4383
rhand -7.88321 24.4017
rfingers 7.12502
rthumb 18.0212 -4.78342
lclavicle -1.45113e-014 -1.98785e-014
lhumerus 11.3537 21.5431 83.5628
lradius 66.2503
lwrist 39.18
lhand 14.2128 36.4081
lfingers 7.12502
lthumb 39.1101 61.8965
rfemur 18.3199 2.24023 29.7343
rtibia 1.90833e-014
rfoot -11.1476 -7.9578
rtoes -2.22943
lfemur -28.8561 -1.68972 -6.69349
ltibia 29.2462
lfoot -9.72286 1.65735
ltoes -17.8659
101
root 1.46484 17.5391 7.31307 0.196169 2.36156 -7.25009
lowerback 1.49888 3.6187 3.65324
upperback -0.0623915 4.88476 -0.603673
thorax -0.544929 2.43144 -2.73838
lowerneck -11.8155 17.543 -2.12427
upperneck 11.5826 24.8694 -5.17027
head 5.82474 11.6184 0.835462
rclavicle 4.77083e-014 1.59028e-015
rhumerus -12.6533 -40.792 -8.76137
rradius 80.8508
rwrist -45.4161
rhand -8.27137 24.9959
rfingers 7.12502
rthumb 17.6477 -4.22322
lclavicle 4.77083e-014 1.59028e-015
lhumerus 10.8665 21.2835 83.8267
lradius 66.5914
lwrist 39.266
lhand 14.2673 36.497
lfingers 7.12502
lthumb 39.1615 61.9706
rfemur 19.0969 2.39986 29.9214
rtibia 3.49861e-014
rfoot -10.8815 -8.33351
rtoes -2.48442
lfemur -28.7857 -1.08257 -6.70486
ltibia 30.1384
lfoot -8.49761 0.654998
ltoes -15.0094
102
root 1.50724 17.5533 7.45932 -0.230594 2.18847 -6.85836
lowerback 1.79784 3.64656 3.10711
upperback 0.0618291 4.92054 -0.559283
thorax -0.631515 2.45081 -2.40793
lowerneck -12.9626 17.5554 -2.52895
upperneck 12.4531 25.0473 -4.82898
head 6.19666 11.6278 1.14289
rclavicle -3.42904e-015 1.11319e-014
rhumerus -12.6017 -40.5066 -9.41384
rradius 81.7831
rwrist -44.3476
rhand -8.27522 23.947
rfingers 7.12502
rthumb 17.644 -5.27245
lclavicle -3.42904e-015 1.11319e-014
lhumerus 10.2251 20.8558 83.9029
lradius 67.0323
lwrist 39.2541
lhand 14.2885 36.6005
lfingers 7.12502
lthumb 39.1815 62.0683
rfemur 20.1016 2.5478 29.5006
rtibia 2.54444e-014
rfoot -10.3719 -8.79046
rtoes -3.72995
lfemur -28.265 -1.06102 -7.24046
ltibia 30.908
lfoot -7.92585 0.247681
ltoes -9.2534
103
root 1.5431 17.564 7.5918 -0.445015 2.05733 -6.23757
lowerback 1.97961 3.75548 2.35552
upperback 0.175366 5.05241 -0.685806
thorax -0.661453 2.51945 -2.13235
lowerneck -11.6427 17.608 -1.67753
upperneck 11.4402 24.9947 -5.94292
head 5.91201 11.6454 0.57878
rclavicle 1.88845e-015 2.38542e-015
rhumerus -13.0786 -40.4021 -9.90212
rradius 83.0331
rwrist -43.6063
rhand -8.54294 25.8488
rfingers 7.12502
rthumb 17.3864 -3.39356
lclavicle 1.88845e-015 2.38542e-015
lhumerus 9.70425 20.0822 83.9125
lradius 67.5429
lwrist 39.4079
lhand 14.2352 36.4998
lfingers 7.12502
lthumb 39.1313 61.9821
rfemur 20.8051 2.68083 28.9005
rtibia 3.18055e-015
rfoot -9.40087 -9.51268
rtoes -6.05448
lfemur -27.9331 -1.08198 -8.05354
ltibia 31.5697
lfoot -7.66545 -0.16897
ltoes -5.58887
104
root 1.59098 17.5705 7.71524 -0.394231 2.07343 -5.9633
lowerback 2.12985 3.83761 2.15768
upperback 0.117789 5.16002 -0.788479
thorax -0.806642 2.5711 -2.14376
lowerneck -11.4288 17.4789 -1.44286
upperneck 11.2272 24.8177 -6.35017
head 5.88904 11.5551 0.401062
rclavicle -5.1684e-015 -1.59028e-014
rhumerus -13.7794 -40.0197 -10.2076
rradius 84.3666
rwrist -43.4204
rhand -8.78751 27.5242
rfingers 7.12502
rthumb 17.151 -1.73884
lclavicle -5.1684e-015 -1.59028e-014
lhumerus 9.31041 19.2492 83.9952
lradius 67.9165
lwrist 39.6693
lhand 13.9672 36.7861
lfingers 7.12502
lthumb 38.8787 62.3408
rfemur 17.3981 2.66263 28.6352
rtibia 7.41384
rfoot -11.7108 -10.4673
rtoes -9.84377
lfemur -27.9126 -0.47654 -8.68884
ltibia 32.0417
lfoot -7.1029 -1.24527
ltoes -6.5214
105
root 1.63164 17.571 7.84676 -0.414805 1.64583 -6.50723
lowerback 2.41754 4.01846 2.76725
upperback -0.078665 5.42681 -0.711837
thorax -1.10629 2.69494 -2.43863
lowerneck -11.4893 17.3589 -1.46761
upperneck 11.3229 24.6625 -6.28386
head 5.914 11.4763 0.41747
rclavicle -5.77966e-014 2.38542e-015
rhumerus -14.5038 -39.4971 -10.7011
rradius 85.8331
rwrist -43.4841
rhand -8.5698 28.2111
rfingers 7.12502
rthumb 17.3605 -1.03356
lclavicle -5.77966e-014 2.38542e-015
lhumerus 8.81604 18.4645 83.9205
lradius 67.9357
lwrist 39.7383
lhand 14.0142 36.7261
lfingers 7.12502
lthumb 38.9229 62.2681
rfemur 15.1145 3.05781 29.3336
rtibia 12.6889
rfoot -12.833 -11.2386
rtoes -13.4316
lfemur -27.6411 0.389505 -8.20664
ltibia 32.3569
lfoot -6.72787 -1.97172
ltoes -6.26357
106
root 1.68314 17.584 7.99176 -0.408219 1.62025 -5.94711
lowerback 2.40993 4.02867 2.25591
upperback -0.195305 5.42437 -0.872783
thorax -1.25352 2.69282 -2.32644
lowerneck -11.4356 17.3421 -1.6519
upperneck 11.4819 24.6386 -5.99373
head 5.89507 11.4746 0.513286
rclavicle -1.62506e-014 1.82882e-014
rhumerus -14.7951 -38.9998 -11.5021
rradius 87.2694
rwrist -43.3252
rhand -8.36333 28.157
rfingers 7.12502
rthumb 17.5592 -1.07009
lclavicle -1.62506e-014 1.82882e-014
lhumerus 8.15111 17.8861 83.8533
lradius 67.8689
lwrist 39.5953
lhand 14.4026 35.946
lfingers 7.12502
lthumb 39.289 61.3827
rfemur 13.3965 2.89186 28.6008
rtibia 17.1014
rfoot -13.5886 -11.4277
rtoes -16.0615
lfemur -27.1984 0.773748 -9.04956
ltibia 32.532
lfoot -6.84391 -2.30042
ltoes -3.72287
